<svg xmlns="http://www.w3.org/2000/svg" xml:space="preserve" viewBox="0 0 100 125"><path d="M75.51 70.217c3.006-11.689 18.702-17.477 13.692-41.3C84.193 5.095 56.08 2.666 41.558 6.431c-15.052 3.902-27.008 19.893-23.039 33.27a3.677 3.677 0 0 1-.46 3.045c-1.836 2.838-6.764 9.031-8.095 12.664a2.371 2.371 0 0 0 1.618 3.108c.423.112 3.02 1.137 3.357 1.244 3.464 1.103 2.796 8.767 2.796 15.797 0 7.347 7.792 6.345 10.353 5.789 2.56-.557 8.349-1.074 8.349 5.9 0 .931.028 1.682.07 2.285a3.598 3.598 0 0 0 2.303 3.099c5.147 1.982 20.054 5.075 38.062-1.364a1.875 1.875 0 0 0 1.039-2.605c-1.699-3.379-4.636-9.752-2.401-18.446zm-5.777-10.97c-4.028 2.097-7.15-.334-8.721-2.081a7.15 7.15 0 0 1-7.352-.941c-.044.148-5.477 1.397-6.426-2.387.087.002.171.011.259.011.091 0 .184-.001.276-.004 3.364-.096 6.6-1.919 9.619-5.419a1.403 1.403 0 1 0-2.126-1.834c-2.471 2.864-5.007 4.36-7.539 4.445a6.866 6.866 0 0 1-2.072-.256c-.176-.056-.346-.104-.528-.167-.186-.064-.353-.139-.525-.21-1.387-.612-2.239-1.446-2.259-1.466-.035-.036-.075-.063-.113-.095-1.879-1.953-1.828-4.627-1.5-6.411-6.716.746-9.882-1.73-11.376-4.139a7.577 7.577 0 0 0 1.804-.441c1.818-.707 3.182-2.085 4.053-4.094a1.404 1.404 0 0 0-2.575-1.117c-.568 1.31-1.38 2.157-2.483 2.589-.994.391-2.081.388-3.001.257a6.523 6.523 0 0 1-3.648-5.852 6.533 6.533 0 0 1 5.964-6.507 3.303 3.303 0 0 1-.392-2.205 3.324 3.324 0 0 1 2.784-2.713c.115-.016.225-.012.338-.017.437 1.326 1.329 3.145 3.054 3.867.489.205.996.306 1.52.306 1.093 0 2.262-.442 3.492-1.325a1.403 1.403 0 1 0-1.637-2.28c-.67.48-1.61.991-2.288.711-.763-.317-1.298-1.531-1.569-2.47a5.678 5.678 0 0 1 8.088-1.954 5.685 5.685 0 0 1 5.335-3.729 5.66 5.66 0 0 1 3.55 1.248 5.68 5.68 0 0 1 9.303-.076 4.808 4.808 0 0 1 2.478-.688 4.838 4.838 0 0 1 4.534 3.156 4.175 4.175 0 0 1 2.244-.655 4.196 4.196 0 0 1 4.196 4.196c0 .089-.008.176-.013.264a2.985 2.985 0 0 1 1.901-.188 2.982 2.982 0 0 1 2.046 4.128c.061-.003.12-.009.182-.009a3.712 3.712 0 0 1 3.712 3.712c0 .693-.203 1.334-.534 1.889-2.354-.352-5.258.245-7.536 3.488a1.403 1.403 0 1 0 2.297 1.613c2.788-3.97 6.479-1.845 6.896-1.586.028.018.058.028.086.043a11.639 11.639 0 0 1 1.615 5.929c0 3.557-1.589 6.741-4.094 8.886.265.905.312 1.904.028 2.947a5.446 5.446 0 0 1-3.927 3.824 5.326 5.326 0 0 1-3.09-.157c-.307 2.19-1.471 4.476-4.33 5.964z"/><path d="M48.064 28.273c-2.269 2.466-3.017 6.237-1.861 9.384a1.403 1.403 0 1 0 2.634-.968c-.803-2.184-.283-4.802 1.292-6.515a1.404 1.404 0 0 0-2.065-1.901zM74.513 23.491c-1.802-3.272-4.705-4.198-7.379-4.126-.209-.969-.619-2.378-1.39-3.617a1.403 1.403 0 1 0-2.383 1.483c.519.835.822 1.82.99 2.549-.775.211-1.472.477-2.037.753a1.404 1.404 0 0 0 1.234 2.522c.241-.119 5.952-2.846 8.506 1.791a1.404 1.404 0 1 0 2.459-1.355zM61.762 38.571c.701 2.681 2.588 4.335 5.178 4.539a1.404 1.404 0 0 0 .221-2.799c-.839-.066-1.474-.37-1.944-.928-.822-.979-.928-2.491-.917-2.882a1.405 1.405 0 0 0-1.351-1.715c-4.839-.058-5.722-4.645-5.759-4.848a1.404 1.404 0 0 0-2.767.474c.379 2.248 2.348 6.347 7.114 7.071.047.333.122.696.225 1.088zM52.023 14.561a1.404 1.404 0 0 0-.888 1.775c.548 1.645.498 2.943-.156 3.968-1.304 2.047-4.614 2.46-4.68 2.468a1.404 1.404 0 0 0 .309 2.791c.191-.021 4.687-.548 6.73-3.736 1.129-1.762 1.284-3.908.461-6.379a1.404 1.404 0 0 0-1.776-.887zM69.834 53.343c-1.959.843-3.582.974-4.824.386-1.646-.78-2.212-2.643-2.229-2.7a1.404 1.404 0 0 0-2.706.744c.034.126.875 3.115 3.694 4.475a6.706 6.706 0 0 0 2.95.654c1.299 0 2.711-.327 4.226-.979a1.405 1.405 0 0 0-1.111-2.58z"/></svg>
